<?xml version="1.0" encoding="utf8" standalone="no"?>
<svg viewBox="0 0 709.63971 318.59503" xmlns="http://www.w3.org/2000/svg">
<g transform="translate(-18.80171,-64.29355)">
<path d="m486.4717,249.43951c17.36011-18.57494-2.61661-52.27512-1.19003-100.23331 1.42373-47.8625 33.74986-64.17633 33.74986-64.17633s-10.32762,4.03728-6.98209,27.38102c2.83732,19.79771 9.13091,42.81896 23.50483,55.5774 14.7857,12.22692 39.11622,45.61902 30.14173,63.45615 18.09247-6.14188 46.27209,8.39816 67.0864,27.67205 21.7206,20.5573 35.62923,30.45353 50.69,35.26739 21.62269,6.91124 37.46901.81539 37.46901.81539-24.74691,21.36042-72.18789,21.67446-103.15249,15.9199-30.29352-5.62986-47.19432-22.11311-74.7516-15.79998-34.97313,11.95201-92.85482,66.09325-181.52363,77.64001s-298.26192-20.39181-323.39593-46.82436-2.09852-35.33134-3.75112-34.14009c-.22403-.23732 6.0341,5.97576 133.22081,37.49425-22.81603-3.66667-138.20086-40.99259-137.98549-42.52538 .32217.1094 51.89417-190.66753 94.96461-211.03971s140.96639,38.96238 216.2512,82.98835c89.27635,52.2081 125.83932,111.72843 145.65393,90.52725z" fill="none" stroke="#000" stroke-linecap="round" stroke-linejoin="round" stroke-width="15"/>
<path d="m220,314.50504a13.57143,12.14286 0 1,1 -27.14285,0 13.57143,12.14286 0 1,1 27.14285,0z" stroke="#000" stroke-linecap="round" stroke-linejoin="round" stroke-width="15" transform="matrix(.85895,0,0,.80874,30.23946,43.72334)"/>
</g>
</svg>
